PathFileType	4	(x/y/z)	S10_M20_T35
DataRate	CameraRate	NumFrames	NumMarkers	Units	OrigDataRate	OrigDataStartFrame	OrigNumFrames
240	240	4	51	mm	240	493	563
Frame#	Time	Sternum			R.Acromium			L.Acromium			Top.Head			R.ASIS			L.ASIS			R.PSIS			L.PSIS			R.Great.Tro			L.Great.Tro			R.Iliac.Crest			L.Iliac.Crest			V.Sacral			R.Thigh.Upper.Post			R.Thigh.Lower.Ant			R.Thigh.Lower.Post			R.Thigh.Upper.Ant			R.Knee.Lat			R.Knee.Med			R.Shank.Upper.Post			R.Shank.Lower.Ant			R.Shank.Lower.Post			R.Shank.Upper.Ant			R.Ankle.Lat			R.Ankle.Med			R.Heel.Upper			R.Heel.Med			R.Heel.Lat			R.Toe.Lat			R.Toe.Med			R.Toe.Tip			L.Thigh.Upper.Post			L.Thigh.Lower.Ant			L.Thigh.Lower.Post			L.Thigh.Upper.Ant			L.Knee.Lat			L.Knee.Med			L.Shank.Upper.Post			L.Shank.Lower.Ant			L.Shank.Lower.Post			L.Shank.Upper.Ant			L.Ankle.Lat			L.Ankle.Med			L.Heel.Upper			L.Heel.Med			L.Heel.Lat			L.Toe.Lat			L.Toe.Med			L.Toe.Tip			Cervical.Spine			Back			
		X1	Y1	Z1	X2	Y2	Z2	X3	Y3	Z3	X4	Y4	Z4	X5	Y5	Z5	X6	Y6	Z6	X7	Y7	Z7	X8	Y8	Z8	X9	Y9	Z9	X10	Y10	Z10	X11	Y11	Z11	X12	Y12	Z12	X13	Y13	Z13	X14	Y14	Z14	X15	Y15	Z15	X16	Y16	Z16	X17	Y17	Z17	X18	Y18	Z18	X19	Y19	Z19	X20	Y20	Z20	X21	Y21	Z21	X22	Y22	Z22	X23	Y23	Z23	X24	Y24	Z24	X25	Y25	Z25	X26	Y26	Z26	X27	Y27	Z27	X28	Y28	Z28	X29	Y29	Z29	X30	Y30	Z30	X31	Y31	Z31	X32	Y32	Z32	X33	Y33	Z33	X34	Y34	Z34	X35	Y35	Z35	X36	Y36	Z36	X37	Y37	Z37	X38	Y38	Z38	X39	Y39	Z39	X40	Y40	Z40	X41	Y41	Z41	X42	Y42	Z42	X43	Y43	Z43	X44	Y44	Z44	X45	Y45	Z45	X46	Y46	Z46	X47	Y47	Z47	X48	Y48	Z48	X49	Y49	Z49	X50	Y50	Z50	X51	Y51	Z51	

493	2.05	1789.6	1240.6	303.16	1660.9	1395.8	455.52	1688.5	1423.9	149.56	1622.7	1708.3	327.88	1746.2	972.55	394.77	1722.3	991.98	165.81	1538.9	999.32	331.98	1535.3	1010.5	250.9	1689.4	892.7	475.73	1644	933.71	110.71	1655	1052.8	452.74	1655.9	1070.1	148.05	1511.4	973.06	294.68	1777.6	703.77	475.64	1855.1	654.39	430.1	1808.2	619.62	467.1	1824.2	740.45	433.45	1865.3	512.19	425.43	1846.9	502.34	297.15	1928.1	289.45	434.38	2017.8	275.43	420.41	1972.4	229.02	429.53	1977.4	341.19	424.61	2055.2	143.99	412.21	2063.1	160.34	334.73	2038.9	70.387	363.71	2062.7	55.005	334.57	2057.6	53.138	396.27	2201.3	147.61	443.16	2215.3	175.17	335.97	2251.8	222.26	379.31	1517.2	692.56	126.69	1563.4	591.07	147.19	1484.9	605.36	149.18	1594.7	672.27	125.04	1489.2	507.75	159.52	1507.7	502.48	286.92	1361.6	320.39	174	1400.9	217.42	194.15	1345	245.63	191.2	1420.8	289.98	178.42	1337.7	117.32	210.02	1353.1	133.37	297.86	1264.1	95.717	259.63	1270.6	62.809	291.42	1264.6	66.214	225.56	1437.8	39.914	185.43	1467.9	43.737	293.64	1523.8	48.271	245.73	1596.9	1466.6	305.89	1510.2	1259	288.42
494	2.0542	1795.2	1239.4	303.41	1666.7	1394.5	456.14	1694.3	1423.1	150.22	1628.1	1707.2	328.73	1751.8	971.54	394.74	1727.5	991.05	165.85	1544.4	998.35	332.44	1540.7	1009.6	251.41	1695.4	891.8	475.88	1649	932.85	110.91	1660.7	1051.8	452.94	1661	1069.1	148.28	1516.8	972.14	295.24	1784	703.2	475.46	1861.2	653.81	429.52	1814.7	619.08	466.91	1830.3	739.85	432.92	1871.5	511.68	425.3	1852.4	501.49	297.16	1934.6	288.92	434.2	2024.2	274.97	420.05	1978.9	228.53	429.29	1983.8	340.7	424.3	2061.8	143.63	411.79	2069.4	159.97	334.3	2045.5	69.938	363.35	2069.3	54.539	334.2	2064.3	52.697	395.93	2208	147.59	442.41	2221.6	175.22	335.21	2258	222.38	378.35	1521.4	692.33	127.28	1567.4	590.76	147.21	1488.7	605.28	149.67	1598.6	671.72	125.16	1492.5	507.65	159.74	1511.3	502.11	287.07	1363.7	321.1	174.19	1402.3	217.85	194.24	1346.7	246.41	191.43	1422.7	290.28	178.51	1338.6	117.99	210.06	1353.9	134.04	297.9	1264.7	96.947	259.63	1270.9	64.041	291.44	1265	67.37	225.62	1437.9	39.883	185.42	1468	43.764	293.62	1524	48.017	245.69	1602.8	1465.7	306.6	1515.8	1258.2	288.93
495	2.0583	1800.8	1238.1	303.66	1672.6	1393.3	456.77	1700.2	1422.2	150.9	1633.4	1706.1	329.6	1757.5	970.55	394.72	1732.7	990.12	165.9	1549.9	997.38	332.91	1546.1	1008.7	251.92	1701.4	890.94	476.05	1653.9	931.99	111.13	1666.5	1050.8	453.15	1666.2	1068.2	148.52	1522.3	971.22	295.8	1790.5	702.7	475.27	1867.5	653.32	428.9	1821.2	618.62	466.69	1836.5	739.34	432.36	1877.9	511.21	425.14	1858	500.72	297.14	1940.9	288.38	434.03	2030.5	274.36	419.69	1985.2	227.97	429.07	1990.1	340.13	423.99	2068.1	143.1	411.4	2075.4	159.39	333.89	2051.6	69.331	363.05	2075.4	53.877	333.87	2070.6	52.091	395.64	2214.3	147.23	441.67	2227.5	174.85	334.44	2264	222.05	377.37	1525.6	692.11	127.9	1571.4	590.47	147.25	1492.5	605.21	150.2	1602.6	671.18	125.3	1495.8	507.55	159.98	1515.1	501.74	287.24	1365.8	321.83	174.4	1403.7	218.29	194.34	1348.4	247.22	191.65	1424.6	290.61	178.6	1339.6	118.7	210.09	1354.8	134.75	297.94	1265.3	98.234	259.62	1271.4	65.33	291.47	1265.5	68.577	225.68	1438	39.853	185.42	1468.2	43.795	293.59	1524.2	47.764	245.65	1608.6	1464.9	307.32	1521.5	1257.4	289.44
496	2.0625	1806.4	1236.9	303.92	1678.4	1392.1	457.4	1706.1	1421.4	151.59	1638.8	1705	330.49	1763.2	969.59	394.73	1737.9	989.19	165.96	1555.5	996.44	333.39	1551.6	1007.7	252.43	1707.4	890.12	476.23	1658.9	931.13	111.38	1672.3	1049.8	453.38	1671.4	1067.3	148.76	1527.8	970.32	296.36	1797.1	702.26	475.06	1873.9	652.94	428.25	1827.9	618.24	466.46	1842.7	738.9	431.77	1884.3	510.79	424.97	1863.8	500.02	297.11	1947.1	287.82	433.88	2036.5	273.61	419.32	1991.3	227.35	428.89	1996.3	339.48	423.68	2074	142.4	411.04	2081.1	158.6	333.49	2057.3	68.569	362.78	2081	53.026	333.59	2076.4	51.325	395.41	2220.2	146.51	440.95	2233.1	174.06	333.68	2269.8	221.28	376.38	1529.9	691.9	128.55	1575.4	590.2	147.29	1496.3	605.13	150.77	1606.7	670.64	125.46	1499.2	507.46	160.25	1518.9	501.35	287.43	1368	322.58	174.61	1405.2	218.76	194.44	1350.2	248.07	191.85	1426.5	290.97	178.69	1340.7	119.44	210.13	1355.8	135.48	297.97	1266	99.578	259.61	1271.8	66.677	291.49	1265.9	69.837	225.73	1438.1	39.826	185.42	1468.3	43.831	293.55	1524.4	47.515	245.61	1614.5	1464	308.04	1527.1	1256.6	289.94
